# xmcd CD database file
#
# Track frame offsets:
#	150
#	17860
#	42719
#	68001
#	89066
#	107714
#	134571
#	156684
#	184736
#	204236
#	232983
#	252072
#	286554
#
# Disc length: 4240 seconds
#
# Revision: 0
# Processed by: cddbd v1.5.2PL0 Copyright (c) Steve Scherf et al.
# Submitted via: CDex 1.51
#
DISCID=b9108e0d
DTITLE=Big James And The Chicago Playboys - Blues Power
DYEAR=2003
DGENRE=Jazz
TTITLE0=Da Blues Will Never Die
TTITLE1=Low Down Dirty Blues
TTITLE2=A Happy Fool
TTITLE3=8 Men, 4 Women
TTITLE4=All Of Yyour Love
TTITLE5=If It Wasn't 4 Da Blues
TTITLE6=Never Loved Any I Like U
TTITLE7=I'll Never Be The Same
TTITLE8=Da Coldest Man I Ever Knew
TTITLE9=Da Best Love I Never Had
TTITLE10=I Like Your Style
TTITLE11=Chains And Things
TTITLE12=Blues And Pants
EXTD=YEAR: 2003
EXTT0=
EXTT1=
EXTT2=
EXTT3=
EXTT4=
EXTT5=
EXTT6=
EXTT7=
EXTT8=
EXTT9=
EXTT10=
EXTT11=
EXTT12=
PLAYORDER=
